#!OML:ASF E:\Mandelcareful walks\Project 1\Capture day 1\Session 1\Subject1.ASF
:FULLY-SPECIFIED
:DEGREES
645
root 5.52296 16.9116 -2.33386 -46.0219 -84.3356 48.0932
lowerback -1.93266 -0.258476 -5.1055
upperback 3.07202 -0.191581 0.715148
thorax 4.28718 -0.284479 3.59457
lowerneck -20.4009 1.45339 -2.09317
upperneck 34.7072 2.52595 -0.979632
head 15.6787 0.333097 0.347372
rclavicle 6.11263e-015 -7.55382e-015
rhumerus -26.6994 -7.22705 -81.2878
rradius 27.1983
rwrist -6.26824
rhand -9.05542 -31.5345
rfingers 7.12502
rthumb 16.8931 -60.8197
lclavicle 6.11263e-015 -7.55382e-015
lhumerus -26.9523 2.62603 90.6911
lradius 24.089
lwrist 6.33068
lhand -18.9322 -11.7639
lfingers 7.12502
lthumb 7.37055 18.0877
rfemur -2.93603 -10.5311 14.6764
rtibia 18.6242
rfoot -17.0911 -17.7033
rtoes 4.17255
lfemur -2.56341 -7.25126 -13.822
ltibia 14.8815
lfoot -13.824 18.5797
ltoes -2.23982
646
root 5.52788 16.9049 -2.34933 -46.4393 -84.3335 48.3871
lowerback -1.68033 -0.290276 -5.04844
upperback 2.96722 -0.252291 0.734299
thorax 4.03988 -0.30408 3.57932
lowerneck -20.0142 1.52674 -1.90126
upperneck 34.8582 2.57915 -1.13034
head 15.6672 0.348959 0.25418
rclavicle -1.31695e-014 -6.36111e-015
rhumerus -26.8586 -7.23915 -81.2741
rradius 27.1554
rwrist -6.11476
rhand -8.9894 -31.2425
rfingers 7.12502
rthumb 16.9566 -60.5223
lclavicle -1.31695e-014 -6.36111e-015
lhumerus -27.0059 2.57734 90.6597
lradius 24.0261
lwrist 6.49393
lhand -18.9722 -11.9194
lfingers 7.12502
lthumb 7.33195 17.9335
rfemur -2.91726 -10.4333 14.714
rtibia 18.8055
rfoot -17.1875 -17.7854
rtoes 4.13584
lfemur -2.35444 -7.23618 -13.7884
ltibia 14.7103
lfoot -13.767 18.5699
ltoes -2.28306
647
root 5.53383 16.9008 -2.36677 -47.325 -84.2493 49.2239
lowerback -1.48283 -0.29842 -5.15609
upperback 2.8681 -0.271658 0.736176
thorax 3.82763 -0.308898 3.64137
lowerneck -19.7565 1.61613 -1.6166
upperneck 35.0924 2.66298 -1.37136
head 15.7308 0.374359 0.112363
rclavicle 1.18277e-014 1.03368e-014
rhumerus -27.0244 -7.26938 -81.2452
rradius 27.251
rwrist -6.09527
rhand -8.68808 -31.4909
rfingers 7.12502
rthumb 17.2467 -60.7456
lclavicle 1.18277e-014 1.03368e-014
lhumerus -27.1492 2.64694 90.6215
lradius 24.0897
lwrist 6.23442
lhand -19.2331 -12.5186
lfingers 7.12502
lthumb 7.08018 17.343
rfemur -2.98314 -10.2059 14.69
rtibia 18.9681
rfoot -17.315 -18.0249
rtoes 4.25998
lfemur -2.28268 -7.285 -13.8509
ltibia 14.5883
lfoot -13.6607 18.6476
ltoes -2.30194
648
root 5.53876 16.9038 -2.38281 -47.2118 -84.3423 49.1231
lowerback -1.40985 -0.253932 -5.02529
upperback 2.78076 -0.22255 0.778997
thorax 3.68908 -0.275211 3.61473
lowerneck -19.7915 1.64232 -1.90703
upperneck 35.699 2.55945 -0.784839
head 16.0194 0.352019 0.391635
rclavicle 1.1281e-014 4.37326e-015
rhumerus -27.2139 -7.32683 -81.1747
rradius 27.3299
rwrist -6.14838
rhand -8.49224 -31.4065
rfingers 7.12502
rthumb 17.4352 -60.6446
lclavicle 1.1281e-014 4.37326e-015
lhumerus -27.2775 2.43473 90.6764
lradius 24.2799
lwrist 6.18894
lhand -19.4741 -12.6727
lfingers 7.12502
lthumb 6.84754 17.1966
rfemur -3.12735 -10.0268 14.8877
rtibia 19.0943
rfoot -17.3316 -18.2202
rtoes 4.24888
lfemur -2.32779 -7.34703 -13.7049
ltibia 14.5342
lfoot -13.4761 18.8352
ltoes -2.74005
649
root 5.54519 16.9068 -2.39721 -46.6085 -84.5642 48.5732
lowerback -1.35653 -0.235499 -4.76057
upperback 2.66878 -0.212751 0.878334
thorax 3.5393 -0.257525 3.56932
lowerneck -19.5453 1.71466 -1.90356
upperneck 35.9145 2.632 -0.777554
head 16.0673 0.371699 0.403615
rclavicle -2.6339e-015 7.95139e-015
rhumerus -27.3695 -7.21596 -81.104
rradius 27.3122
rwrist -6.21452
rhand -8.40758 -31.0521
rfingers 7.12502
rthumb 17.5166 -60.2829
lclavicle -2.6339e-015 7.95139e-015
lhumerus -27.3558 2.20583 90.7735
lradius 24.5992
lwrist 6.52684
lhand -19.3702 -11.7006
lfingers 7.12502
lthumb 6.94778 18.1654
rfemur -3.33601 -9.8192 15.2211
rtibia 19.2281
rfoot -17.308 -18.3732
rtoes 4.2926
lfemur -2.403 -7.38548 -13.4226
ltibia 14.4785
lfoot -13.3429 19.0159
ltoes -3.28828
